{"title":"Vacation.2015.BRRip.480p.x264.AAC-VYTO [P2PDL]","uid":12926939,"size":373243818,"categoryP":"video","categoryS":"movies","magnet":"?xt=urn:btih:f56458b61ea217c2aced3479bf095e6de0f5e35f&amp;dn=Vacation.2015.BRRip.480p.x264.AAC-VYTO+%5BP2PDL%5D&amp;tr=udp%3A%2F%2Ftracker.leechers-paradise.org%3A6969&amp;tr=udp%3A%2F%2Fzer0day.ch%3A1337&amp;tr=udp%3A%2F%2Fopen.demonii.com%3A1337&amp;tr=udp%3A%2F%2Ftracker.coppersurfer.tk%3A6969&amp;tr=udp%3A%2F%2Fexodus.desync.com%3A6969","seeders":0,"leechers":1,"uploader":"VYTOP2PDL","files":7,"time":1449480773,"description":"Vacation.2015.BRRip.480p.x264.AAC-VYTO\r\n\r\n\r\nGenre: Adventure, Comedy   \nhttp://www.imdb.com/title/tt1524930/\r\n\r\n\r\nGeneral\r\nFormat                         : MPEG-4\r\nFile size                      : 351 MiB\r\nDuration                       : 1h 39mn\r\nOverall bit rate               : 496 Kbps\r\n\r\nVideo\r\nFormat                         : AVC\r\nBit rate                       : 461 Kbps\r\nWidth                          : 720 pixels\r\nHeight                         : 304 pixels\r\nDisplay aspect ratio           : 2.35:1\r\nFrame rate mode                : Constant\r\nFrame rate                     : 23.976 fps\r\nBit depth                      : 8 bits\r\nStream size                    : 326 MiB (93%)\r\nWriting library                : x264\r\n\r\nAudio\r\nFormat                         : AAC\r\nBit rate mode                  : Variable\r\nBit rate                       : 32.0 Kbps\r\nChannel(s)                     : 2 channels \r\nChannel positions              : Front: L R\r\nSampling rate                  : 48.0 KHz\r\nStream size                    : 22.6 MiB (6%)\r\nLanguage                       : English\r\n\r\nSubtitle                       : Yes (English)\r\n \nhttp://ititli.com/C0 \nhttp://ititli.com/CA \nhttp://ititli.com/Cl \nhttp://ititli.com/Cm \nhttp://ititli.com/Cx \nhttp://ititli.com/C7 \nhttp://ititli.com/CC \nhttp://ititli.com/CF\r\n\r\n----------------------------------------------------------------------------------------------------\r\n\r\n\r\nEncoder Notes: Looking For Early Access To Anything You Can Provide WEBDL, DVDScr, DVDR, BluRay,\r\nDirect Audio, Music Releases and Seedboxes. If You Got anything to offer please contact us.\r\n\r\nSupport us by donating BC - 1FgwdzPsd1y25Gea8wP1qni35uGCtmkRCD\r\n\r\nSend some love!\r\nFind us and join us!","torrent":{"xt":"urn:btih:f56458b61ea217c2aced3479bf095e6de0f5e35f","amp;dn":"Vacation.2015.BRRip.480p.x264.AAC-VYTO+%5BP2PDL%5D","amp;tr":["udp%3A%2F%2Ftracker.leechers-paradise.org%3A6969","udp%3A%2F%2Fzer0day.ch%3A1337","udp%3A%2F%2Fopen.demonii.com%3A1337","udp%3A%2F%2Ftracker.coppersurfer.tk%3A6969","udp%3A%2F%2Fexodus.desync.com%3A6969"],"infoHash":"f56458b61ea217c2aced3479bf095e6de0f5e35f","infoHashBuffer":{"type":"Buffer","data":[245,100,88,182,30,162,23,194,172,237,52,121,191,9,94,109,224,245,227,95]},"announce":[],"urlList":[]}}